Complete name                            : Barrio.Tales.2012.WEBRip.XviD-Acesn8s
Format                                   : AVI
Format/Info                              : Audio Video Interleave
File size                                : 695 MiB
Duration                                 : 1h 22mn
Overall bit rate                         : 1 184 Kbps
Writing library                          : VirtualDub build 32842/release

Video
ID                                       : 0
Format                                   : MPEG-4 Visual
Format profile                           : Advanced Simple@L5
Format settings, BVOP                    : 4
Format settings, QPel                    : No
Format settings, GMC                     : No warppoints
Format settings, Matrix                  : Default (H.263)
Muxing mode                              : Packed bitstream
Codec ID                                 : XVID
Codec ID/Hint                            : XviD
Duration                                 : 1h 22mn
Bit rate                                 : 1 046 Kbps
Width                                    : 640 pixels
Height                                   : 272 pixels
Display aspect ratio                     : 2.35:1
Frame rate                               : 23.976 fps
Color space                              : YUV
Chroma subsampling                       : 4:2:0
Bit depth                                : 8 bits
Scan type                                : Progressive
Compression mode                         : Lossy
Bits/(Pixel*Frame)                       : 0.251
Stream size                              : 614 MiB (88%)
Writing library                          : XviD 64

Audio
ID                                       : 1
Format                                   : MPEG Audio
Format version                           : Version 1
Format profile                           : Layer 3
Mode                                     : Joint stereo
Mode extension                           : MS Stereo
Codec ID                                 : 55
Codec ID/Hint                            : MP3
Duration                                 : 1h 22mn
Bit rate mode                            : Constant
Bit rate                                 : 128 Kbps
Channel(s)                               : 2 channels
Sampling rate                            : 48.0 KHz
Compression mode                         : Lossy
Stream size                              : 75.1 MiB (11%)
Alignment                                : Split accross interleaves
Interleave, duration                     : 42 ms (1.00 video frame)
Interleave, preload duration             : 500 ms
Writing library                          : LAME3.99.5

Source                                   : WEB DL

Subs                                     : Hardcoded for non English parts

IMDB:     http://www.imdb.com/title/tt2170301/

Rankings: 4.8/10 from 33 users   

Genre: Horror

Cast: Alexander Aguila, Carson Aune and Adam Beesely

Plot: Two American teenagers in search of cheap drugs, trespass into the seedy 
town of Barrio, Mexico. What they find instead is a disturbed story teller and   
three tales filled with blood, witches and a cannibalistic taco chef. 

Screens:
 
http://www.shotpix.com/images/59373550506405578366.jpg
 
http://www.shotpix.com/images/28226282906499344165.jpg
 
http://www.shotpix.com/images/77271270930372343620.jpg
 
http://www.shotpix.com/images/77419208137052614466.jpg
 
http://www.shotpix.com/images/98584944708584131116.jpg